<svg width="56" height="48" viewBox="0 0 56 48" fill="none" xmlns="http://www.w3.org/2000/svg">
<path d="M45.2276 0.0890214H10.8172C10.1021 0.0890214 7.98683 1.44252 7.46548 2.11927C5.97587 4.69091 1.96374 10.2129 0.762201 13.0826C-0.493858 16.0825 0.0173867 18.0153 0.762201 18.5567C8.35931 27.5575 24.0451 45.4041 26.0114 47.1907C27.9777 48.9773 30.8527 47.3937 32.0444 46.3786C37.556 39.6788 47.8851 27.529 50.8886 23.2577C53.8464 19.0515 56 18.5567 56 15.8351C56 12.8923 51.0819 5.85492 49.4731 2.93137C47.8643 0.00781171 45.9724 -0.181678 45.2276 0.0890214Z" fill="url(#paint0_linear_521_414)"/>
<defs>
<linearGradient id="paint0_linear_521_414" x1="28" y1="0" x2="28" y2="48" gradientUnits="userSpaceOnUse">
<stop stop-color="#A34FF8"/>
<stop offset="1" stop-color="#741FD9"/>
</linearGradient>
</defs>
</svg>
