<svg width="109" height="87" viewBox="0 0 109 87" fill="none" xmlns="http://www.w3.org/2000/svg">
<g filter="url(#filter0_f_476_748)">
<path d="M38.1956 39.3984C44.5247 39.3984 49.6553 34.2854 49.6553 27.9781C49.6553 21.6709 44.5247 16.5579 38.1956 16.5579C31.8666 16.5579 26.7359 21.6709 26.7359 27.9781C26.7359 34.2854 31.8666 39.3984 38.1956 39.3984Z" fill="url(#paint0_linear_476_748)" fill-opacity="0.5"/>
<path d="M38.1956 44.1534C26.4601 44.1534 16.9448 53.6359 16.9448 65.331C16.9448 68.3956 19.4409 70.8831 22.5161 70.8831H53.8752C56.9504 70.8831 59.4602 68.3956 59.4602 65.331C59.4602 53.6359 49.9449 44.1534 38.1956 44.1534Z" fill="url(#paint1_linear_476_748)" fill-opacity="0.5"/>
</g>
<g filter="url(#filter1_iiiii_476_748)">
<path d="M38.3147 33.064C44.9605 33.064 50.348 27.6771 50.348 21.0319C50.348 14.3867 44.9605 8.99976 38.3147 8.99976C31.6688 8.99976 26.2813 14.3867 26.2813 21.0319C26.2813 27.6771 31.6688 33.064 38.3147 33.064Z" fill="url(#paint2_linear_476_748)"/>
<path d="M38.3146 38.0738C25.9916 38.0738 16 48.0644 16 60.3861C16 63.615 18.621 66.2357 21.8502 66.2357H54.7791C58.0083 66.2357 60.6438 63.615 60.6438 60.3861C60.6438 48.0644 50.6521 38.0738 38.3146 38.0738Z" fill="url(#paint3_linear_476_748)"/>
</g>
<g filter="url(#filter2_f_476_748)">
<path d="M79.4603 48.1198C83.2776 48.1198 86.3721 45.0359 86.3721 41.2318C86.3721 37.4276 83.2776 34.3438 79.4603 34.3438C75.643 34.3438 72.5485 37.4276 72.5485 41.2318C72.5485 45.0359 75.643 48.1198 79.4603 48.1198Z" fill="url(#paint4_linear_476_748)" fill-opacity="0.5"/>
<path d="M79.4603 50.9877C72.3821 50.9877 66.6431 56.707 66.6431 63.7608C66.6431 65.6092 68.1485 67.1094 70.0033 67.1094H88.9172C90.772 67.1094 92.2858 65.6092 92.2858 63.7608C92.2858 56.707 86.5467 50.9877 79.4603 50.9877Z" fill="url(#paint5_linear_476_748)" fill-opacity="0.5"/>
</g>
<g filter="url(#filter3_iiiii_476_748)">
<path d="M79.5326 44.2993C83.541 44.2993 86.7904 41.0502 86.7904 37.0422C86.7904 33.0343 83.541 29.7852 79.5326 29.7852C75.5242 29.7852 72.2748 33.0343 72.2748 37.0422C72.2748 41.0502 75.5242 44.2993 79.5326 44.2993Z" fill="url(#paint6_linear_476_748)"/>
<path d="M79.5326 47.3209C72.1001 47.3209 66.0737 53.3466 66.0737 60.7783C66.0737 62.7257 67.6546 64.3064 69.6022 64.3064H89.4629C91.4106 64.3064 93.0001 62.7257 93.0001 60.7783C93.0001 53.3466 86.9738 47.3209 79.5326 47.3209Z" fill="url(#paint7_linear_476_748)"/>
</g>
<defs>
<filter id="filter0_f_476_748" x="0.944824" y="0.557861" width="74.5151" height="86.3254" filterUnits="userSpaceOnUse" color-interpolation-filters="sRGB">
<feFlood flood-opacity="0" result="BackgroundImageFix"/>
<feBlend mode="normal" in="SourceGraphic" in2="BackgroundImageFix" result="shape"/>
<feGaussianBlur stdDeviation="8" result="effect1_foregroundBlur_476_748"/>
</filter>
<filter id="filter1_iiiii_476_748" x="12" y="4.99976" width="50.6436" height="63.2361" filterUnits="userSpaceOnUse" color-interpolation-filters="sRGB">
<feFlood flood-opacity="0" result="BackgroundImageFix"/>
<feBlend mode="normal" in="SourceGraphic" in2="BackgroundImageFix" result="shape"/>
<feColorMatrix in="SourceAlpha" type="matrix" values="0 0 0 0 0 0 0 0 0 0 0 0 0 0 0 0 0 0 127 0" result="hardAlpha"/>
<feOffset dx="2" dy="2"/>
<feGaussianBlur stdDeviation="3"/>
<feComposite in2="hardAlpha" operator="arithmetic" k2="-1" k3="1"/>
<feColorMatrix type="matrix" values="0 0 0 0 0.938667 0 0 0 0 1 0 0 0 0 0.808333 0 0 0 0.4 0"/>
<feBlend mode="normal" in2="shape" result="effect1_innerShadow_476_748"/>
<feColorMatrix in="SourceAlpha" type="matrix" values="0 0 0 0 0 0 0 0 0 0 0 0 0 0 0 0 0 0 127 0" result="hardAlpha"/>
<feOffset dx="-4" dy="-4"/>
<feGaussianBlur stdDeviation="3"/>
<feComposite in2="hardAlpha" operator="arithmetic" k2="-1" k3="1"/>
<feColorMatrix type="matrix" values="0 0 0 0 0 0 0 0 0 0.583333 0 0 0 0 0.163333 0 0 0 0.2 0"/>
<feBlend mode="normal" in2="effect1_innerShadow_476_748" result="effect2_innerShadow_476_748"/>
<feColorMatrix in="SourceAlpha" type="matrix" values="0 0 0 0 0 0 0 0 0 0 0 0 0 0 0 0 0 0 127 0" result="hardAlpha"/>
<feOffset dx="1" dy="1"/>
<feGaussianBlur stdDeviation="1"/>
<feComposite in2="hardAlpha" operator="arithmetic" k2="-1" k3="1"/>
<feColorMatrix type="matrix" values="0 0 0 0 0.873417 0 0 0 0 1 0 0 0 0 0.795833 0 0 0 0.4 0"/>
<feBlend mode="normal" in2="effect2_innerShadow_476_748" result="effect3_innerShadow_476_748"/>
<feColorMatrix in="SourceAlpha" type="matrix" values="0 0 0 0 0 0 0 0 0 0 0 0 0 0 0 0 0 0 127 0" result="hardAlpha"/>
<feOffset dx="-2" dy="-2"/>
<feGaussianBlur stdDeviation="2"/>
<feComposite in2="hardAlpha" operator="arithmetic" k2="-1" k3="1"/>
<feColorMatrix type="matrix" values="0 0 0 0 0 0 0 0 0 0.304167 0 0 0 0 0.231167 0 0 0 0.2 0"/>
<feBlend mode="normal" in2="effect3_innerShadow_476_748" result="effect4_innerShadow_476_748"/>
<feColorMatrix in="SourceAlpha" type="matrix" values="0 0 0 0 0 0 0 0 0 0 0 0 0 0 0 0 0 0 127 0" result="hardAlpha"/>
<feOffset dx="-1" dy="-1"/>
<feGaussianBlur stdDeviation="0.5"/>
<feComposite in2="hardAlpha" operator="arithmetic" k2="-1" k3="1"/>
<feColorMatrix type="matrix" values="0 0 0 0 0.105882 0 0 0 0 0.984314 0 0 0 0 0.457255 0 0 0 0.2 0"/>
<feBlend mode="normal" in2="effect4_innerShadow_476_748" result="effect5_innerShadow_476_748"/>
</filter>
<filter id="filter2_f_476_748" x="50.6431" y="18.3438" width="57.6426" height="64.7656" filterUnits="userSpaceOnUse" color-interpolation-filters="sRGB">
<feFlood flood-opacity="0" result="BackgroundImageFix"/>
<feBlend mode="normal" in="SourceGraphic" in2="BackgroundImageFix" result="shape"/>
<feGaussianBlur stdDeviation="8" result="effect1_foregroundBlur_476_748"/>
</filter>
<filter id="filter3_iiiii_476_748" x="62.0737" y="25.7852" width="32.9263" height="40.521" filterUnits="userSpaceOnUse" color-interpolation-filters="sRGB">
<feFlood flood-opacity="0" result="BackgroundImageFix"/>
<feBlend mode="normal" in="SourceGraphic" in2="BackgroundImageFix" result="shape"/>
<feColorMatrix in="SourceAlpha" type="matrix" values="0 0 0 0 0 0 0 0 0 0 0 0 0 0 0 0 0 0 127 0" result="hardAlpha"/>
<feOffset dx="2" dy="2"/>
<feGaussianBlur stdDeviation="3"/>
<feComposite in2="hardAlpha" operator="arithmetic" k2="-1" k3="1"/>
<feColorMatrix type="matrix" values="0 0 0 0 0.938667 0 0 0 0 1 0 0 0 0 0.808333 0 0 0 0.4 0"/>
<feBlend mode="normal" in2="shape" result="effect1_innerShadow_476_748"/>
<feColorMatrix in="SourceAlpha" type="matrix" values="0 0 0 0 0 0 0 0 0 0 0 0 0 0 0 0 0 0 127 0" result="hardAlpha"/>
<feOffset dx="-4" dy="-4"/>
<feGaussianBlur stdDeviation="3"/>
<feComposite in2="hardAlpha" operator="arithmetic" k2="-1" k3="1"/>
<feColorMatrix type="matrix" values="0 0 0 0 0 0 0 0 0 0.583333 0 0 0 0 0.163333 0 0 0 0.2 0"/>
<feBlend mode="normal" in2="effect1_innerShadow_476_748" result="effect2_innerShadow_476_748"/>
<feColorMatrix in="SourceAlpha" type="matrix" values="0 0 0 0 0 0 0 0 0 0 0 0 0 0 0 0 0 0 127 0" result="hardAlpha"/>
<feOffset dx="1" dy="1"/>
<feGaussianBlur stdDeviation="1"/>
<feComposite in2="hardAlpha" operator="arithmetic" k2="-1" k3="1"/>
<feColorMatrix type="matrix" values="0 0 0 0 0.873417 0 0 0 0 1 0 0 0 0 0.795833 0 0 0 0.4 0"/>
<feBlend mode="normal" in2="effect2_innerShadow_476_748" result="effect3_innerShadow_476_748"/>
<feColorMatrix in="SourceAlpha" type="matrix" values="0 0 0 0 0 0 0 0 0 0 0 0 0 0 0 0 0 0 127 0" result="hardAlpha"/>
<feOffset dx="-2" dy="-2"/>
<feGaussianBlur stdDeviation="2"/>
<feComposite in2="hardAlpha" operator="arithmetic" k2="-1" k3="1"/>
<feColorMatrix type="matrix" values="0 0 0 0 0 0 0 0 0 0.304167 0 0 0 0 0.231167 0 0 0 0.2 0"/>
<feBlend mode="normal" in2="effect3_innerShadow_476_748" result="effect4_innerShadow_476_748"/>
<feColorMatrix in="SourceAlpha" type="matrix" values="0 0 0 0 0 0 0 0 0 0 0 0 0 0 0 0 0 0 127 0" result="hardAlpha"/>
<feOffset dx="-1" dy="-1"/>
<feGaussianBlur stdDeviation="0.5"/>
<feComposite in2="hardAlpha" operator="arithmetic" k2="-1" k3="1"/>
<feColorMatrix type="matrix" values="0 0 0 0 0.105882 0 0 0 0 0.984314 0 0 0 0 0.457255 0 0 0 0.2 0"/>
<feBlend mode="normal" in2="effect4_innerShadow_476_748" result="effect5_innerShadow_476_748"/>
</filter>
<linearGradient id="paint0_linear_476_748" x1="38.2025" y1="44.1534" x2="38.2025" y2="70.8831" gradientUnits="userSpaceOnUse">
<stop stop-color="#A47FD8"/>
<stop offset="1" stop-color="#7A0CE8"/>
</linearGradient>
<linearGradient id="paint1_linear_476_748" x1="38.2025" y1="44.1534" x2="38.2025" y2="70.8831" gradientUnits="userSpaceOnUse">
<stop stop-color="#A47FD8"/>
<stop offset="1" stop-color="#7A0CE8"/>
</linearGradient>
<linearGradient id="paint2_linear_476_748" x1="38.3219" y1="38.0737" x2="38.3219" y2="66.2356" gradientUnits="userSpaceOnUse">
<stop stop-color="#A47FD8"/>
<stop offset="1" stop-color="#7A0CE8"/>
</linearGradient>
<linearGradient id="paint3_linear_476_748" x1="38.3219" y1="38.0737" x2="38.3219" y2="66.2356" gradientUnits="userSpaceOnUse">
<stop stop-color="#A47FD8"/>
<stop offset="1" stop-color="#7A0CE8"/>
</linearGradient>
<linearGradient id="paint4_linear_476_748" x1="79.4644" y1="50.9877" x2="79.4644" y2="67.1094" gradientUnits="userSpaceOnUse">
<stop stop-color="#A47FD8"/>
<stop offset="1" stop-color="#7A0CE8"/>
</linearGradient>
<linearGradient id="paint5_linear_476_748" x1="79.4644" y1="50.9877" x2="79.4644" y2="67.1094" gradientUnits="userSpaceOnUse">
<stop stop-color="#A47FD8"/>
<stop offset="1" stop-color="#7A0CE8"/>
</linearGradient>
<linearGradient id="paint6_linear_476_748" x1="79.5369" y1="47.3208" x2="79.5369" y2="64.3064" gradientUnits="userSpaceOnUse">
<stop stop-color="#A47FD8"/>
<stop offset="1" stop-color="#7A0CE8"/>
</linearGradient>
<linearGradient id="paint7_linear_476_748" x1="79.5369" y1="47.3208" x2="79.5369" y2="64.3064" gradientUnits="userSpaceOnUse">
<stop stop-color="#A47FD8"/>
<stop offset="1" stop-color="#7A0CE8"/>
</linearGradient>
</defs>
</svg>
