<svg width="71" height="48" viewBox="0 0 71 48" fill="none" xmlns="http://www.w3.org/2000/svg">
<path d="M70.1562 21.5958C69.3426 20.8663 48.9216 0.199269 48.9216 0.199269C48.5148 0.280316 46.725 -0.287084 45.9927 0.199176C45.2605 0.685436 44.6911 1.73912 44.7725 2.14436V9.43864C44.7725 12.1618 42.8198 12.8426 41.8435 12.8426C39.4841 13.0047 32.471 13.8152 23.2938 15.7603C11.8223 18.1918 0.83891 28.89 0.106688 32.5372C-0.479091 35.4549 1.48978 36.5085 2.54743 36.6706C13.5308 36.5085 22.2108 28.934 41.2486 32.8243C45.2835 33.6488 44.6656 37.2008 44.7725 39.102C44.5284 41.2903 44.568 45.8081 45.1537 47.1697C45.7395 48.5313 47.9455 47.9362 49.1658 47.3689C53.7219 42.9113 63.0782 33.5096 67.7155 28.89C72.3528 24.2705 70.9698 22.3252 70.1562 21.5958Z" fill="url(#paint0_linear_521_422)"/>
<defs>
<linearGradient id="paint0_linear_521_422" x1="35.5" y1="0" x2="35.5" y2="48" gradientUnits="userSpaceOnUse">
<stop stop-color="#A34FF8"/>
<stop offset="1" stop-color="#741FD9"/>
</linearGradient>
</defs>
</svg>
