<svg width="582" height="362" viewBox="0 0 582 362" fill="none" xmlns="http://www.w3.org/2000/svg">
<path d="M494 234.147C517.467 212.259 563.571 100.966 582 105.946L576.432 362L1.29639 358.164C-1.62036 321.8 1.29639 251.657 1.29639 246.654C1.29639 240.4 11.9092 207.722 32.3203 212.259C51.0142 216.414 55.7871 234.147 59.7645 246.654C63.7419 259.161 73.2878 263.331 99.5387 258.467C125.79 253.603 118.63 231.701 142.495 216.761C166.359 201.822 191.019 232.757 211.702 234.147C232.385 235.536 233.182 199.711 243.124 176.126C254.26 149.708 253.863 87.1849 271.363 94.8282C288.864 102.471 296.421 192.108 316.706 183.77C336.991 175.431 342.806 138.802 354.094 94.8282C363.64 57.6395 410.696 -6.99077 418.651 1.00001C434.269 16.6886 443.586 122.365 443.586 156.323C443.586 212.259 469.682 256.828 494 234.147Z" fill="url(#paint0_linear_621_29)" fill-opacity="0.2"/>
<defs>
<linearGradient id="paint0_linear_621_29" x1="291.648" y1="64.2406" x2="291.648" y2="362" gradientUnits="userSpaceOnUse">
<stop stop-color="#7A0CE8"/>
<stop offset="1" stop-color="#D9D9D9" stop-opacity="0"/>
</linearGradient>
</defs>
</svg>
