<svg width="951" height="703" viewBox="0 0 951 703" fill="none" xmlns="http://www.w3.org/2000/svg">
<path d="M-112.5 1.58917C-159.272 -29.9155 -172.269 417.367 -209 424.534L-197.901 793.089L948.416 787.568C954.23 735.227 948.416 634.266 948.416 627.064C948.416 618.063 927.264 571.027 886.582 577.557C849.322 583.538 839.809 609.062 831.882 627.064C823.954 645.067 804.928 651.068 752.607 644.067C700.285 637.066 714.555 605.541 666.99 584.038C619.425 562.535 570.274 607.061 529.051 609.062C487.828 611.062 486.24 559.496 466.424 525.549C444.227 487.523 445.019 397.53 410.138 408.532C375.257 419.533 360.195 548.553 319.765 536.551C279.335 524.549 267.743 471.826 245.246 408.532C226.22 355.004 184.997 363.005 169.142 374.507C138.013 397.088 119.199 466.04 66.8773 497.045C14.5557 528.05 -64.032 34.2361 -112.5 1.58917Z" fill="url(#paint0_linear_621_26)"/>
<defs>
<linearGradient id="paint0_linear_621_26" x1="369.708" y1="364.505" x2="369.708" y2="793.089" gradientUnits="userSpaceOnUse">
<stop stop-color="#7A0CE8"/>
<stop offset="1" stop-color="#D9D9D9" stop-opacity="0"/>
</linearGradient>
</defs>
</svg>
